PathFileType	4	(X/Y/Z)
DataRate	CameraRate	NumFrames	NumMarkers	Units	OrigDataRate	OrigDataStartFrame	OrigNumFrames	
  100.0	  100.0	    4	     55	     mm	  100.0	      452	    516
Frame#	Time	LASI			RASI			LPSI			RPSI			RTH1			RTH2			RTH3			RLFC			RMFC			LTH1			LTH2			LTH3			LLFC			LMFC			RTB1			RTB2			RTB3			RLMAL			RMMAL			LTB1			LTB2			LTB3			LMMAL			LLMAL			RCAL			RTOE			RMT5			LCAL			LTOE			LMT5			LACR			RACR			CLAV			LASH			LPSH			RASH			RPSH			RUA1			RUA2			RUA3			RLEL			RMEL			LUA1			LUA2			LUA3			LLEL			LMEL			RFAsuperior			RFAradius			RFAulna			LFAsuperior			LFAradius			LFAulna			RHJC			LHJC			
		X1	Y1	Z1	X2	Y2	Z2	X3	Y3	Z3	X4	Y4	Z4	X5	Y5	Z5	X6	Y6	Z6	X7	Y7	Z7	X8	Y8	Z8	X9	Y9	Z9	X10	Y10	Z10	X11	Y11	Z11	X12	Y12	Z12	X13	Y13	Z13	X14	Y14	Z14	X15	Y15	Z15	X16	Y16	Z16	X17	Y17	Z17	X18	Y18	Z18	X19	Y19	Z19	X20	Y20	Z20	X21	Y21	Z21	X22	Y22	Z22	X23	Y23	Z23	X24	Y24	Z24	X25	Y25	Z25	X26	Y26	Z26	X27	Y27	Z27	X28	Y28	Z28	X29	Y29	Z29	X30	Y30	Z30	X31	Y31	Z31	X32	Y32	Z32	X33	Y33	Z33	X34	Y34	Z34	X35	Y35	Z35	X36	Y36	Z36	X37	Y37	Z37	X38	Y38	Z38	X39	Y39	Z39	X40	Y40	Z40	X41	Y41	Z41	X42	Y42	Z42	X43	Y43	Z43	X44	Y44	Z44	X45	Y45	Z45	X46	Y46	Z46	X47	Y47	Z47	X48	Y48	Z48	X49	Y49	Z49	X50	Y50	Z50	X51	Y51	Z51	X52	Y52	Z52	X53	Y53	Z53	X54	Y54	Z54	X55	Y55	Z55	

455	4.55000	541.52923	1031.35642	-385.12797	278.39636	1031.20110	-384.93669	451.05220	1079.90420	-579.02998	369.88479	1077.63245	-579.49580	218.56205	895.00775	-450.92734	234.66164	760.99349	-403.32472	246.58236	654.52161	-491.56864	246.94401	543.43117	-482.59604	374.61813	530.85257	-479.82690	595.72532	911.68367	-465.22495	582.22206	791.63662	-409.92228	568.86996	662.69220	-513.34141	565.61108	548.20907	-509.37347	446.03083	529.25454	-487.94175	292.13047	401.85383	-456.43484	232.32482	312.12121	-512.25189	289.37049	206.83811	-495.79940	246.30010	119.57980	-559.46269	333.62601	120.35799	-540.87393	523.85523	427.85797	-476.82920	582.80580	358.89524	-550.66524	526.38255	223.86204	-506.24405	476.76772	122.93075	-534.14812	558.98137	115.22608	-569.40862	296.18452	79.57679	-636.00802	286.99759	74.40861	-399.31256	198.47989	54.80664	-429.04105	500.45727	80.68721	-638.53305	543.39400	81.30110	-406.56295	618.47981	48.33593	-446.94298	563.02057	1565.97137	-490.96216	264.60001	1551.47571	-517.75899	392.56688	1509.28413	-422.86113	575.14195	1517.03272	-427.96434	583.27971	1520.97133	-566.23500	261.21134	1512.25786	-456.58156	255.63720	1497.62598	-598.66823	158.07741	1518.70861	-560.54319	105.61663	1433.29120	-581.85450	51.21845	1484.89630	-554.36653	-45.56863	1476.02225	-539.33652	-35.55897	1395.77396	-538.30631	676.97030	1540.72720	-528.48082	732.27546	1455.87435	-545.15123	786.39046	1508.19151	-515.13098	874.29269	1507.06658	-491.75549	882.88442	1428.85539	-493.68671	-83.59130	1481.48808	-469.15029	-77.82499	1457.28680	-267.00053	-144.39151	1453.39927	-287.40657	895.92881	1514.71110	-369.33825	855.19235	1472.49465	-224.66069	921.26841	1480.86529	-228.26910	304.72324	959.56144	-452.11303	496.54636	981.80586	-466.70256	
456	4.56000	541.51382	1031.35318	-385.11895	278.39600	1031.21346	-384.91252	451.06672	1079.91297	-579.02074	369.90704	1077.64542	-579.52203	218.54902	895.01311	-450.92593	234.65694	760.98529	-403.34451	246.53442	654.52561	-491.53799	246.94029	543.43443	-482.61797	374.62419	530.85031	-479.84815	595.72870	911.67096	-465.20174	582.22228	791.63203	-409.90894	568.87361	662.69770	-513.33496	565.61647	548.19538	-509.36478	446.02638	529.25691	-487.96633	291.40374	402.00331	-456.15607	232.32697	312.12109	-512.27790	289.38603	206.81969	-495.81179	246.31725	119.57498	-559.47590	333.62951	120.35681	-540.88057	523.85374	427.83014	-476.84555	582.81771	358.87933	-550.65368	526.38312	223.84923	-506.24761	476.78316	122.92088	-534.17046	558.99647	115.22150	-569.42133	296.21607	79.59241	-636.03339	286.99730	74.39360	-399.30550	198.13050	54.54312	-428.89069	500.48144	80.68176	-638.54828	543.39349	81.30499	-406.56930	618.48602	48.33857	-446.94233	563.07034	1565.92769	-490.88181	264.65588	1551.47175	-517.72407	392.62990	1509.29393	-422.83973	575.16048	1517.03895	-427.90997	583.32853	1520.96467	-566.17598	261.24321	1512.27090	-456.55658	255.65429	1497.64464	-598.62610	158.10533	1518.74781	-560.53691	105.63173	1433.26376	-581.82502	51.25101	1484.88766	-554.35014	-45.55466	1475.99498	-539.31684	-35.53037	1395.77563	-538.26307	677.00091	1540.71581	-528.43430	732.32139	1455.84395	-545.10589	786.43016	1508.12868	-515.02232	874.32960	1507.06267	-491.70670	882.91383	1428.85010	-493.62458	-83.57946	1481.48024	-469.14535	-77.77014	1457.31999	-267.00978	-144.39695	1453.44128	-287.36595	895.97499	1514.71992	-369.29308	855.22022	1472.53595	-224.60790	921.30730	1480.91261	-228.20007	304.71565	959.57873	-452.11651	496.54250	981.80391	-466.68485	
457	4.57000	541.49263	1031.34427	-385.11370	278.39800	1031.22989	-384.90084	451.08152	1079.91708	-579.01080	369.96392	1077.67804	-579.61565	218.54417	895.01374	-450.92356	234.64806	760.95110	-403.35606	246.47399	654.52118	-491.52576	246.93771	543.44790	-482.62759	374.63093	530.84730	-479.88097	595.73339	911.66679	-465.18695	582.22646	791.63093	-409.88918	568.85696	662.71020	-513.31247	565.62928	548.19000	-509.35866	446.02318	529.24657	-488.00398	290.80344	402.12611	-455.92690	232.32826	312.11832	-512.30270	289.39869	206.79030	-495.83254	246.33782	119.56567	-559.49421	333.64249	120.35946	-540.88689	523.84871	427.82681	-476.84127	582.83134	358.86712	-550.64533	526.38025	223.84192	-506.26045	476.79679	122.91348	-534.18375	559.02001	115.22197	-569.43710	296.21704	79.55932	-636.02625	287.01356	74.38924	-399.31129	197.44743	53.86691	-428.72605	500.51899	80.68762	-638.58297	543.39266	81.30189	-406.57475	618.49637	48.33933	-446.94149	563.09711	1565.90083	-490.84424	264.76180	1551.45837	-517.72250	392.69000	1509.29808	-422.82687	575.18447	1517.05513	-427.85463	583.38779	1520.95384	-566.12432	261.15687	1512.31882	-456.45718	255.66432	1497.66013	-598.57499	158.13763	1518.74667	-560.53306	105.66578	1433.22537	-581.79933	51.29545	1484.88352	-554.33770	-45.53662	1475.98146	-539.28732	-35.49399	1395.77607	-538.22045	677.02977	1540.69976	-528.38316	732.37512	1455.80870	-545.05545	786.46869	1508.06023	-514.87913	874.36303	1507.06144	-491.64427	882.93995	1428.84308	-493.55461	-83.57122	1481.46985	-469.13329	-77.70526	1457.35947	-267.00419	-144.38292	1453.47116	-287.33747	896.01406	1514.73268	-369.24312	855.24325	1472.57773	-224.55424	921.34047	1480.96323	-228.12361	304.70860	959.60330	-452.14650	496.54148	981.79980	-466.67692	
458	4.58000	541.47792	1031.33829	-385.09663	278.40109	1031.23407	-384.90260	451.09758	1079.92015	-579.00513	370.01375	1077.71259	-579.68654	218.54897	895.01279	-450.91750	234.64091	760.91378	-403.34662	246.47195	654.51156	-491.55082	246.93443	543.46760	-482.62290	374.63510	530.84664	-479.90775	595.73462	911.66967	-465.18211	582.22735	791.64447	-409.85875	568.83047	662.72224	-513.28378	565.64051	548.19016	-509.35539	446.02213	529.22974	-488.02494	291.16016	402.04542	-456.08141	232.31932	312.12131	-512.31504	289.39600	206.77899	-495.84292	246.35382	119.56100	-559.50506	333.65662	120.35961	-540.88088	523.84204	427.84376	-476.82308	582.83990	358.86696	-550.63981	526.37717	223.84657	-506.27104	476.80212	122.91289	-534.17417	559.04346	115.22279	-569.44756	296.21452	79.51277	-636.01033	287.03488	74.39256	-399.31996	197.05284	53.40187	-428.66492	500.55448	80.70338	-638.61121	543.39286	81.29584	-406.57419	618.50656	48.33817	-446.94001	563.09982	1565.93772	-490.90847	264.88042	1551.43997	-517.74920	392.73271	1509.30226	-422.80483	575.20685	1517.06903	-427.79873	583.43798	1520.94156	-566.07706	260.95528	1512.39776	-456.30023	255.68292	1497.67041	-598.52854	158.18177	1518.74087	-560.51757	105.72471	1433.19930	-581.77679	51.35039	1484.88628	-554.31896	-45.51342	1475.98679	-539.25087	-35.44826	1395.77394	-538.17629	677.05520	1540.68482	-528.33097	732.41995	1455.78045	-544.99508	786.49673	1507.98975	-514.69772	874.38779	1507.06538	-491.57020	882.96031	1428.83820	-493.47898	-83.55496	1481.46127	-469.11120	-77.64369	1457.39143	-266.99124	-144.34099	1453.47677	-287.32979	896.03332	1514.75421	-369.18488	855.25323	1472.62126	-224.50937	921.35660	1481.01810	-228.04817	304.71043	959.61605	-452.17572	496.54734	981.80063	-466.67004	
